HIERARCHY
ROOT Hips
{
    OFFSET 0.000000 0.000000 0.000000
    CHANNELS 6 Xposition Yposition Zposition Zrotation Xrotation Yrotation
    JOINT Spine
    {
        OFFSET -0.000000 14.517291 0.000000
        CHANNELS 3 Zrotation Xrotation Yrotation
        JOINT Spine1
        {
            OFFSET -0.000000 37.558300 0.000000
            CHANNELS 3 Zrotation Xrotation Yrotation
            JOINT Neck
            {
                OFFSET -0.000000 37.404057 3.400369
                CHANNELS 3 Zrotation Xrotation Yrotation
                JOINT Head
                {
                    OFFSET -0.000000 24.785618 -3.540803
                    CHANNELS 3 Zrotation Xrotation Yrotation
                    End Site
                    {
                        OFFSET -0.000000 35.408028 0.000000
                    }
                }
            }
            JOINT LeftShoulder
            {
                OFFSET 6.992933 33.973492 -0.192664
                CHANNELS 3 Zrotation Xrotation Yrotation
                JOINT LeftArm
                {
                    OFFSET 21.527611 0.000000 0.000000
                    CHANNELS 3 Zrotation Xrotation Yrotation
                    JOINT LeftForeArm
                    {
                        OFFSET 56.353916 0.000000 0.000000
                        CHANNELS 3 Zrotation Xrotation Yrotation
                        JOINT LeftHand
                        {
                            OFFSET 47.774071 0.000000 0.000000
                            CHANNELS 3 Zrotation Xrotation Yrotation
                            End Site
                            {
                                OFFSET 26.556021 0.000000 0.000000
                            }
                        }
                    }
                }
            }
            JOINT RightShoulder
            {
                OFFSET -7.065357 33.973492 -0.192664
                CHANNELS 3 Zrotation Xrotation Yrotation
                JOINT RightArm
                {
                    OFFSET -21.527611 0.000000 0.000000
                    CHANNELS 3 Zrotation Xrotation Yrotation
                    JOINT RightForeArm
                    {
                        OFFSET -56.353916 0.000000 0.000000
                        CHANNELS 3 Zrotation Xrotation Yrotation
                        JOINT RightHand
                        {
                            OFFSET -47.774071 0.000000 0.000000
                            CHANNELS 3 Zrotation Xrotation Yrotation
                            End Site
                            {
                                OFFSET -26.556021 0.000000 0.000000
                            }
                        }
                    }
                }
            }
        }
    }
    JOINT LeftUpLeg
    {
        OFFSET 17.704014 0.000000 0.000000
        CHANNELS 3 Zrotation Xrotation Yrotation
        JOINT LeftLeg
        {
            OFFSET -0.000000 -81.181816 0.000000
            CHANNELS 3 Zrotation Xrotation Yrotation
            JOINT LeftFoot
            {
                OFFSET -0.000000 -62.821102 0.000000
                CHANNELS 3 Zrotation Xrotation Yrotation
                JOINT LeftToeBase
                {
                    OFFSET -0.000000 -11.507608 26.556021
                    CHANNELS 3 Zrotation Xrotation Yrotation
                    End Site
                    {
                        OFFSET -0.000000 0.000000 7.081605
                    }
                }
            }
        }
    }
    JOINT RightUpLeg
    {
        OFFSET -17.704014 0.000000 0.000000
        CHANNELS 3 Zrotation Xrotation Yrotation
        JOINT RightLeg
        {
            OFFSET -0.000000 -81.181816 0.000000
            CHANNELS 3 Zrotation Xrotation Yrotation
            JOINT RightFoot
            {
                OFFSET -0.000000 -62.821102 0.000000
                CHANNELS 3 Zrotation Xrotation Yrotation
                JOINT RightToeBase
                {
                    OFFSET -0.000000 -11.507608 26.556021
                    CHANNELS 3 Zrotation Xrotation Yrotation
                    End Site
                    {
                        OFFSET -0.000000 0.000000 7.081605
                    }
                }
            }
        }
    }
}
MOTION
Frames:    4
Frame Time:    0.008333
-3.524348    154.824341    -3.976991    -3.266130    0.134255    8.219721    4.195316    1.446234    18.768526    -5.730115    -1.865468    6.180157    1.563193    -2.492810    -1.811194    9.109912    7.026218    -1.403465    4.620810    -0.537807    -1.990674    -46.569874    14.997152    -43.298931    -10.614552    -9.258284    -129.555679    1.782619    -30.655418    -2.178886    -15.292541    3.310211    9.747966    19.291670    -16.947453    55.837955    -8.394266    -28.243395    2.551660    14.339217    -23.192371    41.197498    7.776788    -32.267746    -25.426991    -14.814762    31.496780    -15.379275    -4.381686    -5.219670    36.606831    0.000000    0.000000    0.000000    -0.445513    14.223538    -24.642803    2.787510    26.235783    -3.297234    15.918114    -16.800005    0.123922    0.000000    0.000000    0.000000    
-3.417992    154.828827    -4.067148    -3.229857    0.178709    7.656649    4.221270    1.488502    18.759056    -5.734091    -1.883196    6.177093    1.496860    -2.522158    -1.907493    9.202745    7.086657    -1.490069    4.604879    -0.542100    -2.074389    -46.528881    15.037204    -43.364281    -10.446378    -9.708466    -129.411652    1.643521    -30.659237    -2.185727    -15.277093    3.315918    9.840994    19.613745    -17.308645    56.454395    -8.118071    -27.912264    2.776439    14.206193    -22.875765    41.266678    7.915421    -32.219933    -25.340248    -14.938115    31.523775    -15.049741    -4.350440    -5.311267    36.789722    0.000000    0.000000    0.000000    -0.592983    14.218858    -24.645992    2.733722    26.046406    -3.345376    15.986856    -16.949055    0.119600    0.000000    0.000000    0.000000    
-3.312596    154.833405    -4.173075    -3.185241    0.247759    7.087797    4.299112    1.433244    18.734547    -5.779985    -1.792060    6.172529    1.573337    -2.542149    -1.927913    9.103481    7.124498    -1.535922    4.591510    -0.541815    -2.141562    -46.425465    15.046373    -43.458908    -10.247451    -10.223676    -129.193176    1.587092    -30.634914    -2.255671    -15.268580    3.250960    10.093868    19.802849    -17.554520    56.876789    -7.926988    -27.712549    3.003829    14.180359    -22.652012    41.376587    8.067623    -32.174049    -25.203484    -15.163456    31.443727    -14.454605    -4.228927    -5.302947    36.894169    0.000000    0.000000    0.000000    -0.763527    14.156213    -24.726013    2.617620    25.911930    -3.251720    15.988117    -17.083982    0.179302    0.000000    0.000000    0.000000    
-3.213241    154.838287    -4.278867    -3.145615    0.306396    6.554780    4.306613    1.455566    18.732767    -5.749976    -1.792917    6.172788    1.504689    -2.567011    -2.021007    9.161078    7.157470    -1.619419    4.529529    -0.598762    -2.269776    -46.387051    15.016286    -43.473854    -10.135985    -10.500196    -129.036774    1.562215    -30.598598    -2.265725    -15.306597    3.265429    10.130787    20.134699    -17.841875    57.487892    -7.702581    -27.507509    3.264941    14.130353    -22.437517    41.435696    8.200821    -32.138466    -25.058592    -15.244029    31.445353    -14.223092    -4.218506    -5.371409    37.085117    0.000000    0.000000    0.000000    -0.937173    14.088922    -24.724710    2.568969    25.805517    -3.222013    15.952697    -17.215998    0.200841    0.000000    0.000000    0.000000    
